<svg xmlns="http://www.w3.org/2000/svg" version="1.1" xmlns:xlink="http://www.w3.org/1999/xlink" xmlns:svgjs="http://svgjs.dev/svgjs" width="1000" height="1000"><style>
    #light-icon {
      display: inline;
    }
    #dark-icon {
      display: none;
    }

    @media (prefers-color-scheme: dark) {
      #light-icon {
        display: none;
      }
      #dark-icon {
        display: inline;
      }
    }
  </style><g id="light-icon"><svg xmlns="http://www.w3.org/2000/svg" version="1.1" xmlns:xlink="http://www.w3.org/1999/xlink" xmlns:svgjs="http://svgjs.dev/svgjs" width="1000" height="1000"><g><g transform="matrix(1.953125,0,0,1.953125,0,0)"><svg xmlns="http://www.w3.org/2000/svg" version="1.1" xmlns:xlink="http://www.w3.org/1999/xlink" xmlns:svgjs="http://svgjs.dev/svgjs" width="512" height="512"><svg width="512" height="512" viewBox="0 0 512 512" fill="none" xmlns="http://www.w3.org/2000/svg">
<path d="M256.146 37.5405C256.71 38.0406 257.71 39.6115 258.146 40.3489C261.808 46.5042 265.783 52.6723 269.739 58.8789C275.176 67.4066 280.338 77.3128 286.602 85.6353C287.352 86.6291 290.449 88.8669 290.808 89.4183C291.372 90.2967 291.424 92.4959 292.623 94.3297C298.348 103.069 306.299 113.392 312.775 121.618C318.43 128.806 324.855 135.622 330.516 142.976C332.594 143.611 337.787 142.675 339.82 141.764C340.583 141.424 341.615 139.469 342.769 138.821C348.444 135.641 355.169 132.762 360.53 129.005C363.242 127.1 366.313 123.465 368.839 121.92C371.09 120.541 373.353 121.714 372.065 116.803L369.987 115.668C362.434 115.283 354.9 113.642 347.546 112.469C342.179 111.609 339.089 112.135 334.408 109.551C332.51 108.5 328.022 106.313 326.849 104.787C324.996 102.37 321.309 92.7203 321.886 89.7452C323.232 82.8269 328.561 72.6835 334.132 68.285C338.589 64.765 346.642 62.0207 352.348 61.1872C359.331 60.1613 366.666 64.6111 371.103 69.6636C374.841 73.921 375.565 80.6085 376.207 86.3534C376.816 91.7842 376.54 93.214 377.861 98.7987C378.233 100.363 378.072 104.505 379.188 105.313C379.772 105.537 380.47 105.884 381.08 105.89C384.157 105.954 384.382 100.517 384.568 97.9139C385.036 91.3739 385.433 85.1031 386.504 78.6913C387.575 72.2796 390.595 65.0535 396.032 60.6742C404.002 54.2625 411.933 53.602 422.025 54.6151C426.379 55.0511 433.419 59.6932 435.612 63.4441C436.836 65.5408 440.023 74.6712 440.151 76.896C440.209 77.8706 436.599 89.7581 435.971 91.002C433.579 95.7339 423.224 102.716 418.152 103.941C413.485 105.069 414.587 105.243 411.196 106.595C408.612 107.628 405.002 107.384 402.142 108.442C398.917 109.635 397.763 113.373 394.16 113.604C395.403 118.88 402.79 114.623 406.637 114.847C409.586 115.021 419.114 117.04 422.23 117.893C426.764 119.13 433.342 123.279 435.83 127.37C437.33 129.838 440.299 137.962 440.151 140.687C440.029 142.841 436.74 152.677 435.676 154.806C435.528 155.094 432.066 159.236 431.624 159.717C430.995 160.397 425.193 164.18 423.968 164.898C417.601 168.629 414.402 170.329 406.829 168.565C398.494 166.623 391.691 161.615 388.581 153.478C387.1 149.599 387.293 143.668 386.337 139.693C386.029 138.43 384.824 137.673 384.574 136.333C383.824 132.384 386.267 126.094 381.657 123.83L378.932 124.657C378.893 127.312 377.034 127.677 375.995 129.152C369.961 137.731 358.414 156.55 357.638 167.142C357.144 173.919 358.92 173.4 362.8 177.356C374.334 189.128 388.062 200.278 401.431 210.511C403.418 212.031 404.297 212.409 406.034 213.602C407.772 214.794 409.368 216.852 408.92 219.052C405.246 219.026 403.495 222.149 401.027 223.386C391.851 227.983 383.074 233.722 374.507 239.172C368.923 242.73 360.53 246.174 358.542 253.329C357.85 255.823 358.087 259.337 357.465 261.87C355.561 269.641 353.983 275.758 352.432 283.759C347.924 306.957 345.719 329.726 342.872 353.052C340.051 376.166 340.596 409.36 342.852 432.615C343.885 443.246 344.34 453.941 345.456 464.629C345.654 466.559 347.924 475.485 346.302 475.889C342.814 476.587 340.73 473.805 337.794 472.933C335.472 472.24 332.433 472.388 330.055 471.695C314.07 467.047 299.002 463.668 282.473 460.956C254.825 456.422 226.414 455.441 198.369 454.056C181.936 453.242 164.284 455.159 147.735 455.974C141.997 456.256 135.489 455.788 129.802 456.628C124.435 457.423 118.876 459.692 113.144 459.872C112.047 459.904 110.124 460.135 109.675 458.776C109.54 458.359 110.175 450.985 110.329 449.972C110.913 446.164 112.58 442.522 113.298 438.835C116.029 424.755 117.228 410.245 119.293 396.1C122.922 371.223 126.891 346.114 127.583 321.038C128.128 301.238 128.282 280.227 126.955 260.722C126.436 253.111 125.269 244.5 123.563 237.171C122.358 232.01 117.901 230.478 114.388 227.124C103.27 216.525 91.8568 205.561 79.2576 196.835C78.6357 196.405 78.3792 195.424 78.0265 195.219C76.0196 194.046 74.032 195.174 72.3714 191.52C70.7107 187.865 75.0515 188.032 76.8789 186.954C95.3256 176.086 113.644 163.506 131.462 151.164C132.584 150.388 134.95 150.151 135.733 149.343C136.284 148.779 136.149 147.56 136.682 147.092C137.406 146.464 140.785 146.118 141.497 145.496C142.061 145.002 141.862 143.79 142.459 143.252C144.837 141.097 151.736 137.186 154.865 134.859C189.412 109.135 224.01 75.8124 249.971 40.663C251.741 38.2715 251.709 33.578 256.133 37.5213L256.146 37.5405Z" fill="#E60004"></path>
</svg></svg></g></g></svg></g><g id="dark-icon"><svg xmlns="http://www.w3.org/2000/svg" version="1.1" xmlns:xlink="http://www.w3.org/1999/xlink" xmlns:svgjs="http://svgjs.dev/svgjs" width="1000" height="1000"><g clip-path="url(#SvgjsClipPath1020)"><rect width="1000" height="1000" fill="#ffffff"></rect><g transform="matrix(1.5625,0,0,1.5625,100,100)"><svg xmlns="http://www.w3.org/2000/svg" version="1.1" xmlns:xlink="http://www.w3.org/1999/xlink" xmlns:svgjs="http://svgjs.dev/svgjs" width="512" height="512"><svg width="512" height="512" viewBox="0 0 512 512" fill="none" xmlns="http://www.w3.org/2000/svg">
<path d="M256.146 37.5405C256.71 38.0406 257.71 39.6115 258.146 40.3489C261.808 46.5042 265.783 52.6723 269.739 58.8789C275.176 67.4066 280.338 77.3128 286.602 85.6353C287.352 86.6291 290.449 88.8669 290.808 89.4183C291.372 90.2967 291.424 92.4959 292.623 94.3297C298.348 103.069 306.299 113.392 312.775 121.618C318.43 128.806 324.855 135.622 330.516 142.976C332.594 143.611 337.787 142.675 339.82 141.764C340.583 141.424 341.615 139.469 342.769 138.821C348.444 135.641 355.169 132.762 360.53 129.005C363.242 127.1 366.313 123.465 368.839 121.92C371.09 120.541 373.353 121.714 372.065 116.803L369.987 115.668C362.434 115.283 354.9 113.642 347.546 112.469C342.179 111.609 339.089 112.135 334.408 109.551C332.51 108.5 328.022 106.313 326.849 104.787C324.996 102.37 321.309 92.7203 321.886 89.7452C323.232 82.8269 328.561 72.6835 334.132 68.285C338.589 64.765 346.642 62.0207 352.348 61.1872C359.331 60.1613 366.666 64.6111 371.103 69.6636C374.841 73.921 375.565 80.6085 376.207 86.3534C376.816 91.7842 376.54 93.214 377.861 98.7987C378.233 100.363 378.072 104.505 379.188 105.313C379.772 105.537 380.47 105.884 381.08 105.89C384.157 105.954 384.382 100.517 384.568 97.9139C385.036 91.3739 385.433 85.1031 386.504 78.6913C387.575 72.2796 390.595 65.0535 396.032 60.6742C404.002 54.2625 411.933 53.602 422.025 54.6151C426.379 55.0511 433.419 59.6932 435.612 63.4441C436.836 65.5408 440.023 74.6712 440.151 76.896C440.209 77.8706 436.599 89.7581 435.971 91.002C433.579 95.7339 423.224 102.716 418.152 103.941C413.485 105.069 414.587 105.243 411.196 106.595C408.612 107.628 405.002 107.384 402.142 108.442C398.917 109.635 397.763 113.373 394.16 113.604C395.403 118.88 402.79 114.623 406.637 114.847C409.586 115.021 419.114 117.04 422.23 117.893C426.764 119.13 433.342 123.279 435.83 127.37C437.33 129.838 440.299 137.962 440.151 140.687C440.029 142.841 436.74 152.677 435.676 154.806C435.528 155.094 432.066 159.236 431.624 159.717C430.995 160.397 425.193 164.18 423.968 164.898C417.601 168.629 414.402 170.329 406.829 168.565C398.494 166.623 391.691 161.615 388.581 153.478C387.1 149.599 387.293 143.668 386.337 139.693C386.029 138.43 384.824 137.673 384.574 136.333C383.824 132.384 386.267 126.094 381.657 123.83L378.932 124.657C378.893 127.312 377.034 127.677 375.995 129.152C369.961 137.731 358.414 156.55 357.638 167.142C357.144 173.919 358.92 173.4 362.8 177.356C374.334 189.128 388.062 200.278 401.431 210.511C403.418 212.031 404.297 212.409 406.034 213.602C407.772 214.794 409.368 216.852 408.92 219.052C405.246 219.026 403.495 222.149 401.027 223.386C391.851 227.983 383.074 233.722 374.507 239.172C368.923 242.73 360.53 246.174 358.542 253.329C357.85 255.823 358.087 259.337 357.465 261.87C355.561 269.641 353.983 275.758 352.432 283.759C347.924 306.957 345.719 329.726 342.872 353.052C340.051 376.166 340.596 409.36 342.852 432.615C343.885 443.246 344.34 453.941 345.456 464.629C345.654 466.559 347.924 475.485 346.302 475.889C342.814 476.587 340.73 473.805 337.794 472.933C335.472 472.24 332.433 472.388 330.055 471.695C314.07 467.047 299.002 463.668 282.473 460.956C254.825 456.422 226.414 455.441 198.369 454.056C181.936 453.242 164.284 455.159 147.735 455.974C141.997 456.256 135.489 455.788 129.802 456.628C124.435 457.423 118.876 459.692 113.144 459.872C112.047 459.904 110.124 460.135 109.675 458.776C109.54 458.359 110.175 450.985 110.329 449.972C110.913 446.164 112.58 442.522 113.298 438.835C116.029 424.755 117.228 410.245 119.293 396.1C122.922 371.223 126.891 346.114 127.583 321.038C128.128 301.238 128.282 280.227 126.955 260.722C126.436 253.111 125.269 244.5 123.563 237.171C122.358 232.01 117.901 230.478 114.388 227.124C103.27 216.525 91.8568 205.561 79.2576 196.835C78.6357 196.405 78.3792 195.424 78.0265 195.219C76.0196 194.046 74.032 195.174 72.3714 191.52C70.7107 187.865 75.0515 188.032 76.8789 186.954C95.3256 176.086 113.644 163.506 131.462 151.164C132.584 150.388 134.95 150.151 135.733 149.343C136.284 148.779 136.149 147.56 136.682 147.092C137.406 146.464 140.785 146.118 141.497 145.496C142.061 145.002 141.862 143.79 142.459 143.252C144.837 141.097 151.736 137.186 154.865 134.859C189.412 109.135 224.01 75.8124 249.971 40.663C251.741 38.2715 251.709 33.578 256.133 37.5213L256.146 37.5405Z" fill="#E60004"></path>
</svg></svg></g></g><defs><clipPath id="SvgjsClipPath1020"><rect width="1000" height="1000" x="0" y="0" rx="500" ry="500"></rect></clipPath></defs></svg></g></svg>